# xmcd
#
# Track frame offsets:
#	150
#	9572
#	17870
#	25030
#	34067
#	40975
#	47955
#	57087
#	64220
#	71677
#
# Disc length: 1104 seconds
#
# Revision: 1
# Processed by: cddbd v1.5PL3 Copyright (c) Steve Scherf et al.
# Submitted via: CDex 1.50Beta5
#
DISCID=84044e0a
DTITLE=ブラスターズ 他・・・ - ハモネプ HIGH SCHOOL
DYEAR=1900
DGENRE=
TTITLE0=ブラスターズ/愛の言霊
TTITLE1=シトラス/UFO
TTITLE2=シトラス/シトラスのテーマ!!
TTITLE3=スウィートポテト/Don't wanna cry
TTITLE4=スウィートポテト/Youthful Days
TTITLE5=34☆K察/ペッパー警部
TTITLE6=34☆K察/クラシック
TTITLE7=ダーツ/愛のままにわがままに僕は君だけを傷つけない
TTITLE8=Z☆MA/Dear My Friend
TTITLE9=Z☆MA/Be alive
EXTD=
EXTT0=
EXTT1=
EXTT2=
EXTT3=
EXTT4=
EXTT5=
EXTT6=
EXTT7=
EXTT8=
EXTT9=
PLAYORDER=
